<?xml version="1.0" encoding="utf-8"?>
<!-- Generator: Adobe Illustrator 22.0.1, SVG Export Plug-In . SVG Version: 6.00 Build 0)  -->
<svg version="1.1" id="Capa_1" xmlns="http://www.w3.org/2000/svg" xmlns:xlink="http://www.w3.org/1999/xlink" x="0px" y="0px"
	 viewBox="0 0 289.4 205.6" style="enable-background:new 0 0 289.4 205.6;" xml:space="preserve">
<style type="text/css">
	.st0{fill:#306EFD;}
	.st1{fill:#4DE5FF;}
	.st2{fill:#FFFFFF;}
	.st3{fill:#306EFE;}
	.st4{fill:#1F2534;}
	.st5{filter:url(#Adobe_OpacityMaskFilter);}
	.st6{mask:url(#b_1_);fill:#30C0E5;}
	.st7{filter:url(#Adobe_OpacityMaskFilter_1_);}
	.st8{mask:url(#d_2_);fill:#30C0E5;}
	.st9{filter:url(#Adobe_OpacityMaskFilter_2_);}
	.st10{mask:url(#f_2_);fill:#30C0E5;}
	.st11{fill:#30C0E5;}
	.st12{filter:url(#Adobe_OpacityMaskFilter_3_);}
	.st13{mask:url(#b_3_);fill:#306EFD;}
	.st14{filter:url(#Adobe_OpacityMaskFilter_4_);}
	.st15{mask:url(#b_2_);fill:#306EFD;}
	.st16{fill:none;stroke:#306EFD;stroke-width:2.5;stroke-linecap:round;stroke-miterlimit:10;}
	.st17{fill:#FAFAFA;}
	.st18{fill:none;stroke:#2C2E3E;stroke-width:2.5;stroke-miterlimit:10;}
	.st19{fill:none;stroke:#306EFD;stroke-width:2.5;stroke-miterlimit:10;}
	.st20{fill:none;stroke:#FC324B;stroke-width:2.5;stroke-miterlimit:10;}
	.st21{fill:#2C2E3E;}
	.st22{fill:#FAFAFA;stroke:#306EFD;stroke-width:2.5;stroke-linejoin:round;stroke-miterlimit:10;}
	.st23{fill:none;stroke:#306EFD;stroke-width:2;stroke-miterlimit:10;}
	.st24{fill:none;stroke:#306EFD;stroke-width:2.5;stroke-linejoin:round;stroke-miterlimit:10;}
	.st25{fill:none;stroke:#2C2E3E;stroke-width:2.5;stroke-linecap:round;stroke-miterlimit:10;}
	.st26{fill-rule:evenodd;clip-rule:evenodd;fill:#FAFAFA;stroke:#306EFD;stroke-width:2.5;stroke-miterlimit:10;}
	.st27{fill:#FAFAFA;stroke:#306EFD;stroke-width:2.5;stroke-linecap:round;stroke-linejoin:round;stroke-miterlimit:10;}
	.st28{fill:none;stroke:#306EFD;stroke-width:2.5;stroke-linecap:round;stroke-linejoin:round;stroke-miterlimit:10;}
	.st29{fill:none;stroke:#2C2E3E;stroke-linecap:round;stroke-miterlimit:10;}
	.st30{fill:none;stroke:#64656D;stroke-linecap:round;stroke-miterlimit:10;}
</style>
<g>
	<g>
		<g>
			<path class="st0" d="M180.9,181.4H67.3c-0.7,0-1.3-0.6-1.3-1.3v-148c0-0.7,0.6-1.3,1.3-1.3h99.2c0.3,0,0.7,0.1,0.9,0.4
				s0.4,0.6,0.3,0.9l-0.5,12.2l13.5-1.1c0.4,0,0.7,0.1,1,0.3c0.3,0.2,0.4,0.6,0.4,0.9v135.7C182.1,180.8,181.5,181.4,180.9,181.4z
				 M68.6,178.9h111V45.8L166,47c-0.4,0-0.7-0.1-1-0.3s-0.4-0.6-0.4-1l0.6-12.3H68.6V178.9z"/>
		</g>
		<g>
			<path class="st0" d="M180.9,45.7c-0.3,0-0.6-0.1-0.8-0.3l-14.3-12.3c-0.5-0.5-0.6-1.2-0.1-1.8c0.5-0.5,1.2-0.6,1.8-0.1l14.3,12.3
				c0.5,0.5,0.6,1.2,0.1,1.8C181.6,45.5,181.2,45.7,180.9,45.7z"/>
		</g>
		<g>
			<path class="st21" d="M153.8,64h-62c-0.7,0-1.3-0.6-1.3-1.3s0.6-1.3,1.3-1.3h62c0.7,0,1.3,0.6,1.3,1.3S154.5,64,153.8,64z"/>
		</g>
		<g>
			<path class="st21" d="M153.8,76h-62c-0.7,0-1.3-0.6-1.3-1.3s0.6-1.3,1.3-1.3h62c0.7,0,1.3,0.6,1.3,1.3S154.5,76,153.8,76z"/>
		</g>
		<g>
			<path class="st21" d="M153.8,88h-62c-0.7,0-1.3-0.6-1.3-1.3s0.6-1.3,1.3-1.3h62c0.7,0,1.3,0.6,1.3,1.3S154.5,88,153.8,88z"/>
		</g>
		<g>
			<path class="st21" d="M153.8,100h-62c-0.7,0-1.3-0.6-1.3-1.3s0.6-1.3,1.3-1.3h62c0.7,0,1.3,0.6,1.3,1.3S154.5,100,153.8,100z"/>
		</g>
		<g>
			<path class="st21" d="M153.8,112.1h-62c-0.7,0-1.3-0.6-1.3-1.3s0.6-1.3,1.3-1.3h62c0.7,0,1.3,0.6,1.3,1.3
				S154.5,112.1,153.8,112.1z"/>
		</g>
		<g>
			<path class="st21" d="M153.8,124.1h-62c-0.7,0-1.3-0.6-1.3-1.3s0.6-1.3,1.3-1.3h62c0.7,0,1.3,0.6,1.3,1.3
				S154.5,124.1,153.8,124.1z"/>
		</g>
		<g>
			<path class="st21" d="M153.8,136.1h-62c-0.7,0-1.3-0.6-1.3-1.3s0.6-1.3,1.3-1.3h62c0.7,0,1.3,0.6,1.3,1.3
				S154.5,136.1,153.8,136.1z"/>
		</g>
		<g>
			<path class="st21" d="M153.8,148.1h-62c-0.7,0-1.3-0.6-1.3-1.3s0.6-1.3,1.3-1.3h62c0.7,0,1.3,0.6,1.3,1.3
				S154.5,148.1,153.8,148.1z"/>
		</g>
	</g>
	<g>
		<g>
			<path class="st17" d="M84.6,193.5H51c-1.8,0-3.3-1.5-3.3-3.3v-41.6c0-1.8,1.5-3.3,3.3-3.3h33.6c1.8,0,3.3,1.5,3.3,3.3v41.6
				C87.9,192.1,86.5,193.5,84.6,193.5z"/>
			<path class="st0" d="M84.6,194.8H51c-2.5,0-4.6-2-4.6-4.6v-41.6c0-2.5,2-4.6,4.6-4.6h33.6c2.5,0,4.6,2,4.6,4.6v41.6
				C89.2,192.7,87.1,194.8,84.6,194.8z M51,146.6c-1.1,0-2.1,0.9-2.1,2.1v41.6c0,1.1,0.9,2.1,2.1,2.1h33.6c1.1,0,2.1-0.9,2.1-2.1
				v-41.6c0-1.1-0.9-2.1-2.1-2.1H51z"/>
		</g>
		<g>
			<g>
				<path class="st21" d="M82.3,163.8H53.4c-0.7,0-1.3-0.6-1.3-1.3v-12.6c0-0.7,0.6-1.3,1.3-1.3h28.9c0.7,0,1.3,0.6,1.3,1.3v12.6
					C83.6,163.2,83,163.8,82.3,163.8z M54.1,161.8h27.5v-11.3H54.1V161.8z"/>
			</g>
			<g>
				<path class="st21" d="M57.8,173h-4.4c-0.7,0-1.3-0.6-1.3-1.3v-4.7c0-0.7,0.6-1.3,1.3-1.3h4.4c0.7,0,1.3,0.6,1.3,1.3v4.7
					C59.1,172.4,58.5,173,57.8,173z M54.1,171h3.1v-3.4h-3.1V171z"/>
			</g>
			<g>
				<path class="st21" d="M65.9,173h-4.4c-0.7,0-1.3-0.6-1.3-1.3v-4.7c0-0.7,0.6-1.3,1.3-1.3h4.4c0.7,0,1.3,0.6,1.3,1.3v4.7
					C67.2,172.4,66.6,173,65.9,173z M62.1,171h3.1v-3.4h-3.1V171z"/>
			</g>
			<g>
				<path class="st21" d="M73.9,173h-4.4c-0.7,0-1.3-0.6-1.3-1.3v-4.7c0-0.7,0.6-1.3,1.3-1.3h4.4c0.7,0,1.3,0.6,1.3,1.3v4.7
					C75.3,172.4,74.7,173,73.9,173z M70.2,171h3.1v-3.4h-3.1V171z"/>
			</g>
			<g>
				<path class="st21" d="M82.3,173h-4.4c-0.7,0-1.3-0.6-1.3-1.3v-4.7c0-0.7,0.6-1.3,1.3-1.3h4.4c0.7,0,1.3,0.6,1.3,1.3v4.7
					C83.6,172.4,83,173,82.3,173z M78.5,171h3.1v-3.4h-3.1V171z"/>
			</g>
			<g>
				<path class="st21" d="M57.8,181.6h-4.4c-0.7,0-1.3-0.6-1.3-1.3v-4.7c0-0.7,0.6-1.3,1.3-1.3h4.4c0.7,0,1.3,0.6,1.3,1.3v4.7
					C59.1,181,58.5,181.6,57.8,181.6z M54.1,179.6h3.1v-3.4h-3.1V179.6z"/>
			</g>
			<g>
				<path class="st21" d="M65.9,181.6h-4.4c-0.7,0-1.3-0.6-1.3-1.3v-4.7c0-0.7,0.6-1.3,1.3-1.3h4.4c0.7,0,1.3,0.6,1.3,1.3v4.7
					C67.2,181,66.6,181.6,65.9,181.6z M62.1,179.6h3.1v-3.4h-3.1V179.6z"/>
			</g>
			<g>
				<path class="st21" d="M73.9,181.6h-4.4c-0.7,0-1.3-0.6-1.3-1.3v-4.7c0-0.7,0.6-1.3,1.3-1.3h4.4c0.7,0,1.3,0.6,1.3,1.3v4.7
					C75.3,181,74.7,181.6,73.9,181.6z M70.2,179.6h3.1v-3.4h-3.1V179.6z"/>
			</g>
			<g>
				<path class="st21" d="M82.3,181.6h-4.4c-0.7,0-1.3-0.6-1.3-1.3v-4.7c0-0.7,0.6-1.3,1.3-1.3h4.4c0.7,0,1.3,0.6,1.3,1.3v4.7
					C83.6,181,83,181.6,82.3,181.6z M78.5,179.6h3.1v-3.4h-3.1V179.6z"/>
			</g>
			<g>
				<path class="st21" d="M57.8,190.1h-4.4c-0.7,0-1.3-0.6-1.3-1.3v-4.7c0-0.7,0.6-1.3,1.3-1.3h4.4c0.7,0,1.3,0.6,1.3,1.3v4.7
					C59.1,189.5,58.5,190.1,57.8,190.1z M54.1,188.1h3.1v-3.4h-3.1V188.1z"/>
			</g>
			<g>
				<path class="st21" d="M65.9,190.1h-4.4c-0.7,0-1.3-0.6-1.3-1.3v-4.7c0-0.7,0.6-1.3,1.3-1.3h4.4c0.7,0,1.3,0.6,1.3,1.3v4.7
					C67.2,189.5,66.6,190.1,65.9,190.1z M62.1,188.1h3.1v-3.4h-3.1V188.1z"/>
			</g>
			<g>
				<path class="st21" d="M73.9,190.1h-4.4c-0.7,0-1.3-0.6-1.3-1.3v-4.7c0-0.7,0.6-1.3,1.3-1.3h4.4c0.7,0,1.3,0.6,1.3,1.3v4.7
					C75.3,189.5,74.7,190.1,73.9,190.1z M70.2,188.1h3.1v-3.4h-3.1V188.1z"/>
			</g>
			<g>
				<path class="st21" d="M82.3,190.1h-4.4c-0.7,0-1.3-0.6-1.3-1.3v-4.7c0-0.7,0.6-1.3,1.3-1.3h4.4c0.7,0,1.3,0.6,1.3,1.3v4.7
					C83.6,189.5,83,190.1,82.3,190.1z M78.5,188.1h3.1v-3.4h-3.1V188.1z"/>
			</g>
		</g>
	</g>
	<g>
		<path class="st22" d="M241.7,151.6v11.9c0,0.4-0.1,0.8-0.4,1.2c-0.3,0.4-0.6,0.6-1.1,0.7l-9.9,1.5c-0.7,1.9-1.4,3.5-2.1,4.9
			c1.2,1.8,3.1,4.2,5.7,7.4c0.4,0.4,0.5,0.9,0.5,1.3c0,0.5-0.2,0.9-0.5,1.2c-1,1.3-2.7,3.2-5.3,5.8c-2.6,2.5-4.2,3.8-5,3.8
			c-0.4,0-0.9-0.2-1.4-0.5l-7.4-5.8c-1.6,0.8-3.2,1.5-4.9,2c-0.6,4.8-1.1,8.1-1.5,9.9c-0.2,1-0.9,1.5-1.9,1.5h-11.9
			c-0.5,0-0.9-0.2-1.3-0.5c-0.4-0.3-0.6-0.7-0.6-1.1l-1.5-9.8c-1.7-0.6-3.3-1.2-4.8-2l-7.5,5.7c-0.4,0.3-0.8,0.5-1.3,0.5
			c-0.5,0-0.9-0.2-1.3-0.6c-4.5-4.1-7.4-7-8.8-9c-0.2-0.4-0.4-0.8-0.4-1.2c0-0.4,0.1-0.8,0.4-1.2c0.5-0.7,1.4-1.9,2.7-3.6
			c1.3-1.6,2.2-2.9,2.9-3.8c-1-1.8-1.7-3.5-2.2-5.3l-9.8-1.4c-0.5-0.1-0.8-0.3-1.1-0.7c-0.3-0.4-0.4-0.8-0.4-1.3v-11.9
			c0-0.4,0.1-0.8,0.4-1.2c0.3-0.4,0.6-0.6,1-0.7l9.9-1.5c0.5-1.6,1.2-3.3,2.1-4.9c-1.4-2-3.3-4.5-5.7-7.4c-0.4-0.4-0.5-0.9-0.5-1.3
			c0-0.4,0.2-0.8,0.5-1.2c0.9-1.3,2.7-3.2,5.3-5.7c2.6-2.5,4.3-3.8,5-3.8c0.5,0,0.9,0.2,1.4,0.5l7.4,5.7c1.6-0.8,3.2-1.5,4.9-2
			c0.6-4.8,1.1-8.1,1.5-9.9c0.2-1,0.9-1.5,1.9-1.5h11.9c0.5,0,0.9,0.2,1.3,0.5c0.4,0.3,0.6,0.7,0.6,1.1l1.5,9.8
			c1.7,0.6,3.3,1.2,4.8,2l7.6-5.7c0.3-0.3,0.7-0.5,1.3-0.5c0.5,0,0.9,0.2,1.3,0.5c4.6,4.2,7.5,7.3,8.8,9.1c0.2,0.3,0.4,0.7,0.4,1.2
			c0,0.4-0.1,0.8-0.4,1.2c-0.5,0.7-1.4,1.9-2.7,3.6c-1.3,1.6-2.2,2.9-2.9,3.8c0.9,1.8,1.7,3.5,2.2,5.2l9.8,1.5
			c0.5,0.1,0.8,0.3,1.1,0.7C241.5,150.7,241.7,151.1,241.7,151.6z M210.3,167c2.7-2.7,4-5.9,4-9.7c0-3.8-1.3-7-4-9.7s-5.9-4-9.7-4
			c-3.8,0-7,1.3-9.7,4s-4,5.9-4,9.7c0,3.8,1.3,7,4,9.7s5.9,4,9.7,4C204.5,171,207.7,169.7,210.3,167z"/>
	</g>
	<g>
		<g>
			<path class="st17" d="M98.3,56.2H67.7c-6.6,0-12-5.4-12-12V17.4c0-6.6,5.4-12,12-12h30.6c6.6,0,12,5.4,12,12v26.8
				C110.3,50.8,104.9,56.2,98.3,56.2z"/>
			<path class="st0" d="M98.3,57.5H67.7c-7.3,0-13.3-5.9-13.3-13.3V17.4c0-7.3,5.9-13.2,13.3-13.2h30.6c7.3,0,13.3,5.9,13.3,13.2
				v26.8C111.6,51.5,105.6,57.5,98.3,57.5z M67.7,6.7C61.8,6.7,57,11.5,57,17.4v26.8C57,50.2,61.8,55,67.7,55h30.6
				c5.9,0,10.8-4.8,10.8-10.8V17.4c0-5.9-4.8-10.7-10.8-10.7H67.7z"/>
		</g>
		<g>
			<rect x="62.3" y="0.5" class="st21" width="2.5" height="9.8"/>
		</g>
		<g>
			<rect x="70" y="0.5" class="st21" width="2.5" height="9.8"/>
		</g>
		<g>
			<rect x="77.7" y="0.5" class="st21" width="2.5" height="9.8"/>
		</g>
		<g>
			<rect x="85.5" y="0.5" class="st21" width="2.5" height="9.8"/>
		</g>
		<g>
			<rect x="93.2" y="0.3" class="st21" width="2.5" height="10"/>
		</g>
		<g>
			<rect x="101.1" y="0.5" class="st21" width="2.5" height="9.8"/>
		</g>
		<g>
			<rect x="67" y="17.2" class="st21" width="32.8" height="2.5"/>
		</g>
		<g>
			<rect x="67" y="25.7" class="st21" width="32.8" height="2.5"/>
		</g>
		<g>
			<rect x="67" y="34.3" class="st21" width="32.8" height="2.5"/>
		</g>
		<g>
			<rect x="67" y="42.8" class="st21" width="32.8" height="2.5"/>
		</g>
	</g>
</g>
</svg>
