<?xml version="1.0" encoding="utf-8"?>
<!-- Generator: Adobe Illustrator 22.0.1, SVG Export Plug-In . SVG Version: 6.00 Build 0)  -->
<svg version="1.1" id="Capa_1" xmlns="http://www.w3.org/2000/svg" xmlns:xlink="http://www.w3.org/1999/xlink" x="0px" y="0px"
	 viewBox="0 0 289.4 205.6" style="enable-background:new 0 0 289.4 205.6;" xml:space="preserve">
<style type="text/css">
	.st0{fill:#306EFD;}
	.st1{fill:#4DE5FF;}
	.st2{fill:#FFFFFF;}
	.st3{fill:#306EFE;}
	.st4{fill:#1F2534;}
	.st5{filter:url(#Adobe_OpacityMaskFilter);}
	.st6{mask:url(#b_1_);fill:#30C0E5;}
	.st7{filter:url(#Adobe_OpacityMaskFilter_1_);}
	.st8{mask:url(#d_2_);fill:#30C0E5;}
	.st9{filter:url(#Adobe_OpacityMaskFilter_2_);}
	.st10{mask:url(#f_2_);fill:#30C0E5;}
	.st11{fill:#30C0E5;}
	.st12{filter:url(#Adobe_OpacityMaskFilter_3_);}
	.st13{mask:url(#b_3_);fill:#306EFD;}
	.st14{filter:url(#Adobe_OpacityMaskFilter_4_);}
	.st15{mask:url(#b_2_);fill:#306EFD;}
	.st16{fill:none;stroke:#306EFD;stroke-width:2.5;stroke-linecap:round;stroke-miterlimit:10;}
	.st17{fill:#FAFAFA;}
	.st18{fill:none;stroke:#2C2E3E;stroke-width:2.5;stroke-miterlimit:10;}
	.st19{fill:none;stroke:#306EFD;stroke-width:2.5;stroke-miterlimit:10;}
	.st20{fill:none;stroke:#FC324B;stroke-width:2.5;stroke-miterlimit:10;}
	.st21{fill:none;stroke:#306EFD;stroke-width:2.5;stroke-linejoin:round;stroke-miterlimit:10;}
	.st22{fill:none;stroke:#306EFD;stroke-width:2.5;stroke-linecap:round;stroke-linejoin:round;stroke-miterlimit:10;}
	.st23{fill:none;stroke:#2C2E3E;stroke-width:2.5;stroke-linecap:round;stroke-linejoin:round;stroke-miterlimit:10;}
	.st24{fill:#FAFAFA;stroke:#306EFD;stroke-width:2.5;stroke-miterlimit:10;}
	.st25{fill:none;stroke:#2C2E3E;stroke-width:2;stroke-miterlimit:10;}
	.st26{fill:#FAFAFA;stroke:#306EFD;stroke-width:2.5;stroke-linejoin:round;stroke-miterlimit:10;}
	.st27{font-family:'FontAwesome';}
	.st28{font-size:95.6744px;}
	.st29{fill:none;stroke:#306EFD;stroke-width:2;stroke-miterlimit:10;}
	.st30{fill:none;stroke:#2C2E3E;stroke-width:2.5;stroke-linecap:round;stroke-miterlimit:10;}
	.st31{fill-rule:evenodd;clip-rule:evenodd;fill:#FAFAFA;stroke:#306EFD;stroke-width:2.5;stroke-miterlimit:10;}
	.st32{fill:#FAFAFA;stroke:#306EFD;stroke-width:2.5;stroke-linecap:round;stroke-linejoin:round;stroke-miterlimit:10;}
	.st33{fill:none;stroke:#2C2E3E;stroke-linecap:round;stroke-miterlimit:10;}
	.st34{fill:none;stroke:#64656D;stroke-linecap:round;stroke-miterlimit:10;}
</style>
<g>
	<g>
		<polygon class="st21" points="180.9,180.1 67.3,180.1 67.3,32.1 166.5,32.1 165.9,45.7 180.9,44.4 		"/>
		<line class="st22" x1="180.9" y1="44.4" x2="166.5" y2="32.1"/>
		<line class="st23" x1="91.8" y1="62.8" x2="153.8" y2="62.8"/>
		<line class="st23" x1="91.8" y1="74.8" x2="153.8" y2="74.8"/>
		<line class="st23" x1="91.8" y1="86.8" x2="153.8" y2="86.8"/>
		<line class="st23" x1="91.8" y1="98.8" x2="153.8" y2="98.8"/>
		<line class="st23" x1="91.8" y1="110.8" x2="153.8" y2="110.8"/>
		<line class="st23" x1="91.8" y1="122.8" x2="153.8" y2="122.8"/>
		<line class="st23" x1="91.8" y1="134.8" x2="153.8" y2="134.8"/>
		<line class="st23" x1="91.8" y1="146.9" x2="153.8" y2="146.9"/>
	</g>
	<g>
		<path class="st24" d="M84.6,193.5H51c-1.8,0-3.3-1.5-3.3-3.3v-41.6c0-1.8,1.5-3.3,3.3-3.3h33.6c1.8,0,3.3,1.5,3.3,3.3v41.6
			C87.9,192.1,86.5,193.5,84.6,193.5z"/>
		<g>
			<path class="st25" d="M82.3,162.8H53.4c-0.2,0-0.3-0.1-0.3-0.3v-12.6c0-0.2,0.1-0.3,0.3-0.3h28.9c0.2,0,0.3,0.1,0.3,0.3v12.6
				C82.6,162.6,82.4,162.8,82.3,162.8z"/>
			<path class="st25" d="M57.8,172h-4.4c-0.2,0-0.3-0.1-0.3-0.3v-4.7c0-0.2,0.1-0.3,0.3-0.3h4.4c0.2,0,0.3,0.1,0.3,0.3v4.7
				C58.1,171.8,58,172,57.8,172z"/>
			<path class="st25" d="M65.9,172h-4.4c-0.2,0-0.3-0.1-0.3-0.3v-4.7c0-0.2,0.1-0.3,0.3-0.3h4.4c0.2,0,0.3,0.1,0.3,0.3v4.7
				C66.2,171.8,66.1,172,65.9,172z"/>
			<path class="st25" d="M73.9,172h-4.4c-0.2,0-0.3-0.1-0.3-0.3v-4.7c0-0.2,0.1-0.3,0.3-0.3h4.4c0.2,0,0.3,0.1,0.3,0.3v4.7
				C74.3,171.8,74.1,172,73.9,172z"/>
			<path class="st25" d="M82.3,172h-4.4c-0.2,0-0.3-0.1-0.3-0.3v-4.7c0-0.2,0.1-0.3,0.3-0.3h4.4c0.2,0,0.3,0.1,0.3,0.3v4.7
				C82.6,171.8,82.4,172,82.3,172z"/>
			<path class="st25" d="M57.8,180.6h-4.4c-0.2,0-0.3-0.1-0.3-0.3v-4.7c0-0.2,0.1-0.3,0.3-0.3h4.4c0.2,0,0.3,0.1,0.3,0.3v4.7
				C58.1,180.4,58,180.6,57.8,180.6z"/>
			<path class="st25" d="M65.9,180.6h-4.4c-0.2,0-0.3-0.1-0.3-0.3v-4.7c0-0.2,0.1-0.3,0.3-0.3h4.4c0.2,0,0.3,0.1,0.3,0.3v4.7
				C66.2,180.4,66.1,180.6,65.9,180.6z"/>
			<path class="st25" d="M73.9,180.6h-4.4c-0.2,0-0.3-0.1-0.3-0.3v-4.7c0-0.2,0.1-0.3,0.3-0.3h4.4c0.2,0,0.3,0.1,0.3,0.3v4.7
				C74.3,180.4,74.1,180.6,73.9,180.6z"/>
			<path class="st25" d="M82.3,180.6h-4.4c-0.2,0-0.3-0.1-0.3-0.3v-4.7c0-0.2,0.1-0.3,0.3-0.3h4.4c0.2,0,0.3,0.1,0.3,0.3v4.7
				C82.6,180.4,82.4,180.6,82.3,180.6z"/>
			<path class="st25" d="M57.8,189.1h-4.4c-0.2,0-0.3-0.1-0.3-0.3v-4.7c0-0.2,0.1-0.3,0.3-0.3h4.4c0.2,0,0.3,0.1,0.3,0.3v4.7
				C58.1,189,58,189.1,57.8,189.1z"/>
			<path class="st25" d="M65.9,189.1h-4.4c-0.2,0-0.3-0.1-0.3-0.3v-4.7c0-0.2,0.1-0.3,0.3-0.3h4.4c0.2,0,0.3,0.1,0.3,0.3v4.7
				C66.2,189,66.1,189.1,65.9,189.1z"/>
			<path class="st25" d="M73.9,189.1h-4.4c-0.2,0-0.3-0.1-0.3-0.3v-4.7c0-0.2,0.1-0.3,0.3-0.3h4.4c0.2,0,0.3,0.1,0.3,0.3v4.7
				C74.3,189,74.1,189.1,73.9,189.1z"/>
			<path class="st25" d="M82.3,189.1h-4.4c-0.2,0-0.3-0.1-0.3-0.3v-4.7c0-0.2,0.1-0.3,0.3-0.3h4.4c0.2,0,0.3,0.1,0.3,0.3v4.7
				C82.6,189,82.4,189.1,82.3,189.1z"/>
		</g>
	</g>
	<text transform="matrix(1 0 0 1 159.6787 191.5397)" class="st26 st27 st28"></text>
	<g>
		<path class="st24" d="M98.3,56.2H67.7c-6.6,0-12-5.4-12-12V17.4c0-6.6,5.4-12,12-12h30.6c6.6,0,12,5.4,12,12v26.8
			C110.3,50.8,104.9,56.2,98.3,56.2z"/>
		<line class="st18" x1="63.6" y1="10.3" x2="63.6" y2="0.5"/>
		<line class="st18" x1="71.3" y1="0.5" x2="71.3" y2="10.3"/>
		<line class="st18" x1="79" y1="10.3" x2="79" y2="0.5"/>
		<line class="st18" x1="86.7" y1="0.5" x2="86.7" y2="10.3"/>
		<line class="st18" x1="94.4" y1="10.3" x2="94.4" y2="0.3"/>
		<line class="st18" x1="102.4" y1="0.5" x2="102.4" y2="10.3"/>
		<line class="st18" x1="67" y1="18.4" x2="99.8" y2="18.4"/>
		<line class="st18" x1="67" y1="27" x2="99.8" y2="27"/>
		<line class="st18" x1="67" y1="35.5" x2="99.8" y2="35.5"/>
		<line class="st18" x1="67" y1="44" x2="99.8" y2="44"/>
	</g>
</g>
</svg>
