<?xml version="1.0" encoding="utf-8"?>
<!-- Generator: Adobe Illustrator 22.0.1, SVG Export Plug-In . SVG Version: 6.00 Build 0)  -->
<svg version="1.1" id="Capa_1" xmlns="http://www.w3.org/2000/svg" xmlns:xlink="http://www.w3.org/1999/xlink" x="0px" y="0px"
	 viewBox="0 0 289.4 205.6" style="enable-background:new 0 0 289.4 205.6;" xml:space="preserve">
<style type="text/css">
	.st0{fill:#306EFD;}
	.st1{fill:#4DE5FF;}
	.st2{fill:#FFFFFF;}
	.st3{fill:#306EFE;}
	.st4{fill:#1F2534;}
	.st5{filter:url(#Adobe_OpacityMaskFilter);}
	.st6{mask:url(#b_1_);fill:#30C0E5;}
	.st7{filter:url(#Adobe_OpacityMaskFilter_1_);}
	.st8{mask:url(#d_2_);fill:#30C0E5;}
	.st9{filter:url(#Adobe_OpacityMaskFilter_2_);}
	.st10{mask:url(#f_2_);fill:#30C0E5;}
	.st11{fill:#30C0E5;}
	.st12{filter:url(#Adobe_OpacityMaskFilter_3_);}
	.st13{mask:url(#b_3_);fill:#306EFD;}
	.st14{filter:url(#Adobe_OpacityMaskFilter_4_);}
	.st15{mask:url(#b_2_);fill:#306EFD;}
	.st16{fill:none;stroke:#306EFD;stroke-width:2.5;stroke-linecap:round;stroke-miterlimit:10;}
	.st17{fill:#FAFAFA;}
	.st18{fill:none;stroke:#2C2E3E;stroke-width:2.5;stroke-miterlimit:10;}
	.st19{fill:none;stroke:#306EFD;stroke-width:2.5;stroke-miterlimit:10;}
	.st20{fill:none;stroke:#FC324B;stroke-width:2.5;stroke-miterlimit:10;}
	.st21{fill:none;stroke:#306EFD;stroke-width:2.5;stroke-linejoin:round;stroke-miterlimit:10;}
	.st22{fill:none;stroke:#306EFD;stroke-width:2.5;stroke-linecap:round;stroke-linejoin:round;stroke-miterlimit:10;}
	.st23{fill:none;stroke:#2C2E3E;stroke-width:2.5;stroke-linecap:round;stroke-linejoin:round;stroke-miterlimit:10;}
	.st24{fill:#FAFAFA;stroke:#306EFD;stroke-width:2.5;stroke-miterlimit:10;}
	.st25{fill:none;stroke:#2C2E3E;stroke-width:2;stroke-miterlimit:10;}
	.st26{fill:none;stroke:#306EFD;stroke-width:2;stroke-miterlimit:10;}
	.st27{fill:none;stroke:#2C2E3E;stroke-width:2.5;stroke-linecap:round;stroke-miterlimit:10;}
	.st28{fill-rule:evenodd;clip-rule:evenodd;fill:#FAFAFA;stroke:#306EFD;stroke-width:2.5;stroke-miterlimit:10;}
	.st29{fill:#FAFAFA;stroke:#306EFD;stroke-width:2.5;stroke-linecap:round;stroke-linejoin:round;stroke-miterlimit:10;}
	.st30{fill:none;stroke:#2C2E3E;stroke-linecap:round;stroke-miterlimit:10;}
	.st31{fill:none;stroke:#64656D;stroke-linecap:round;stroke-miterlimit:10;}
	.st32{fill:#FAFAFA;stroke:#306EFD;stroke-width:2.5;stroke-linejoin:round;stroke-miterlimit:10;}
</style>
<g>
	<path id="XMLID_16_" class="st19" d="M273.3,170.4h-238v3c0,8,6.5,14.5,14.5,14.5h209c8,0,14.5-6.5,14.5-14.5V170.4z"/>
	<rect id="XMLID_15_" x="129.1" y="170.4" class="st19" width="50.3" height="8.8"/>
	<path id="XMLID_14_" class="st19" d="M241.3,58.4h-36.6H67.3c-5.6,0-10.2,4.6-10.2,10.2v101.8h194.5V68.6
		C251.6,63,247,58.4,241.3,58.4z"/>
	<g id="XMLID_9_">
		<rect id="XMLID_13_" x="67.1" y="68.4" class="st19" width="174.5" height="92"/>
		<rect id="XMLID_11_" x="67.1" y="68.4" class="st19" width="174.5" height="92"/>
	</g>
	<circle id="XMLID_6_" class="st26" cx="154.3" cy="63.4" r="1.8"/>
	<g>
		
			<ellipse transform="matrix(0.5142 -0.8577 0.8577 0.5142 57.3828 238.1372)" class="st17" cx="238.9" cy="68.4" rx="20.5" ry="20.5"/>
		<g>
			<path class="st21" d="M257,78c0,1.1-8.1,2-18.1,2c-10,0-18.1-0.8-18.1-1.9"/>
			<path class="st21" d="M255.9,56.8c0,1.1-7.6,2-17,2c-9.4,0-17-0.8-17-1.9"/>
			<path class="st21" d="M248,68.4c0,11.3-4,20.5-9.1,20.6c-5,0-9.1-9.2-9.2-20.5c0-11.3,4-20.5,9.1-20.6
				C243.9,47.9,248,57.1,248,68.4z"/>
			
				<ellipse transform="matrix(0.5142 -0.8577 0.8577 0.5142 57.3837 238.1388)" class="st21" cx="238.9" cy="68.4" rx="20.5" ry="20.5"/>
			<path class="st21" d="M259.4,67.4c0,1.1-9.2,2-20.5,2c-11.4,0-20.6-0.8-20.6-1.9"/>
			<line class="st21" x1="238.9" y1="88.7" x2="238.9" y2="48.1"/>
		</g>
	</g>
	<line class="st27" x1="145.6" y1="92.6" x2="210.8" y2="92.6"/>
	<line class="st27" x1="145.6" y1="100.1" x2="162.2" y2="100.1"/>
	<line class="st27" x1="167.3" y1="100.1" x2="172.7" y2="100.1"/>
	<line class="st27" x1="150.6" y1="107.5" x2="167.2" y2="107.5"/>
	<line class="st27" x1="172.3" y1="107.5" x2="180.7" y2="107.5"/>
	<line class="st27" x1="148.2" y1="122.4" x2="153.6" y2="122.4"/>
	<line class="st27" x1="156.8" y1="114.9" x2="195.5" y2="114.9"/>
	<line class="st27" x1="201.3" y1="114.9" x2="216.3" y2="114.9"/>
	<line class="st27" x1="158.9" y1="122.4" x2="212.7" y2="122.4"/>
	<line class="st27" x1="150" y1="129.8" x2="170" y2="129.8"/>
	<line class="st27" x1="175.9" y1="129.8" x2="180.5" y2="129.8"/>
	<path class="st28" d="M281.7,99.5c0,0-0.5-3.3-1.8-4.7c-1.7-1.9-3.7-1.9-4.5-2c-6.3-0.5-15.8-0.5-15.8-0.5h-0.1c0,0-9.5,0-15.8,0.5
		c-0.9,0.1-2.8,0.1-4.5,2c-1.4,1.4-1.8,4.7-1.8,4.7s-0.5,3.8-0.5,7.6v0.5v3.1c0,3.8,0.5,7.6,0.5,7.6s0.5,3.3,1.8,4.7
		c1.7,1.9,4,1.8,5,2c3.6,0.4,15.4,0.5,15.4,0.5s9.5,0,15.8-0.5c0.9-0.1,2.8-0.1,4.5-2c1.4-1.4,1.8-4.7,1.8-4.7s0.4-3.8,0.4-7.6v-2.9
		v-0.7C282.1,103.3,281.7,99.5,281.7,99.5L281.7,99.5z M267,108.4l-12.3,6.6v-10.2v-3.1l5.6,3L267,108.4z"/>
	<g>
		<path class="st29" d="M133.4,131.7l-80,0c-1.6,0-2.9-1.3-2.9-2.9l0-108.3c0-1.6,1.3-2.9,2.9-2.9l80,0c1.6,0,2.9,1.3,2.9,2.9
			l0,108.3C136.3,130.4,135,131.7,133.4,131.7z"/>
		<rect x="56.5" y="32.1" class="st22" width="75" height="0.5"/>
		<circle class="st0" cx="130.4" cy="21.6" r="1.5"/>
		<circle class="st0" cx="125.3" cy="21.6" r="1.5"/>
		<circle class="st0" cx="120.3" cy="21.6" r="1.5"/>
		<line class="st30" x1="57.1" y1="36.6" x2="119" y2="36.6"/>
		<line class="st30" x1="57.1" y1="41.1" x2="83.9" y2="41.1"/>
		<line class="st31" x1="64.1" y1="51.5" x2="69.3" y2="51.5"/>
		<line class="st31" x1="72" y1="51.5" x2="77.2" y2="51.5"/>
		<line class="st31" x1="79.8" y1="51.5" x2="85.1" y2="51.5"/>
		<line class="st31" x1="87.7" y1="51.5" x2="92.9" y2="51.5"/>
		<line class="st31" x1="95.6" y1="51.5" x2="100.8" y2="51.5"/>
		<line class="st31" x1="64.1" y1="62.7" x2="74.6" y2="62.7"/>
		<line class="st31" x1="76.1" y1="62.7" x2="86.6" y2="62.7"/>
		<line class="st31" x1="95.6" y1="62.7" x2="106.1" y2="62.7"/>
		<line class="st31" x1="107.9" y1="62.7" x2="118.4" y2="62.7"/>
		<line class="st31" x1="77.9" y1="68.2" x2="82" y2="68.2"/>
		<line class="st31" x1="84.6" y1="68.2" x2="88.7" y2="68.2"/>
		<line class="st31" x1="91.3" y1="68.2" x2="95.3" y2="68.2"/>
		<line class="st31" x1="98" y1="68.2" x2="102" y2="68.2"/>
		<line class="st30" x1="104.6" y1="68.2" x2="108.7" y2="68.2"/>
		<line class="st31" x1="111.3" y1="68.2" x2="115.4" y2="68.2"/>
		<line class="st31" x1="118" y1="68.2" x2="122" y2="68.2"/>
		<line class="st31" x1="124.7" y1="68.2" x2="128.7" y2="68.2"/>
		<line class="st31" x1="64.1" y1="73.3" x2="82.2" y2="73.3"/>
		<line class="st30" x1="84.4" y1="73.3" x2="102.5" y2="73.3"/>
		<line class="st30" x1="104.6" y1="73.3" x2="122.8" y2="73.3"/>
		<line class="st30" x1="64.1" y1="78.5" x2="70.4" y2="78.5"/>
		<line class="st30" x1="73.4" y1="78.5" x2="79.7" y2="78.5"/>
		<line class="st30" x1="82.8" y1="78.5" x2="89" y2="78.5"/>
		<line class="st31" x1="92.1" y1="78.5" x2="98.3" y2="78.5"/>
		<line class="st31" x1="105.9" y1="78.5" x2="112.2" y2="78.5"/>
		<line class="st30" x1="115.2" y1="78.5" x2="121.5" y2="78.5"/>
		<line class="st31" x1="76.6" y1="84.1" x2="62.7" y2="84.1"/>
		<line class="st30" x1="101.7" y1="84.1" x2="87.8" y2="84.1"/>
		<line class="st30" x1="126.8" y1="84.1" x2="112.9" y2="84.1"/>
		<line class="st31" x1="78.5" y1="89.9" x2="98.7" y2="89.9"/>
		<line class="st30" x1="103.3" y1="89.9" x2="123.4" y2="89.9"/>
		<line class="st31" x1="75.2" y1="95.5" x2="113.3" y2="95.5"/>
		<line class="st30" x1="77.9" y1="101" x2="87.1" y2="101"/>
		<line class="st30" x1="88.7" y1="101" x2="97.9" y2="101"/>
		<line class="st31" x1="99.5" y1="101" x2="108.7" y2="101"/>
		<line class="st31" x1="110.3" y1="101" x2="119.5" y2="101"/>
		<line class="st30" x1="66.2" y1="106.6" x2="97.2" y2="106.6"/>
		<line class="st30" x1="98.9" y1="106.6" x2="115.4" y2="106.6"/>
		<line class="st30" x1="70.6" y1="112.2" x2="82.5" y2="112.2"/>
		<line class="st31" x1="84.6" y1="112.2" x2="89.7" y2="112.2"/>
		<line class="st31" x1="92.2" y1="112.2" x2="97.3" y2="112.2"/>
		<line class="st30" x1="99.7" y1="112.2" x2="104.9" y2="112.2"/>
		<line class="st31" x1="107.3" y1="112.2" x2="112.4" y2="112.2"/>
		<line class="st30" x1="114.9" y1="112.2" x2="120" y2="112.2"/>
		<line class="st30" x1="122.5" y1="112.2" x2="127.6" y2="112.2"/>
		<line class="st30" x1="83.5" y1="117.7" x2="94.7" y2="117.7"/>
		<line class="st31" x1="96.7" y1="117.7" x2="107.9" y2="117.7"/>
		<line class="st31" x1="109.9" y1="117.7" x2="121.1" y2="117.7"/>
		<line class="st30" x1="75.4" y1="123" x2="96.7" y2="123"/>
		<line class="st30" x1="117.3" y1="123" x2="125" y2="123"/>
		<line class="st30" x1="68.4" y1="56.8" x2="89.7" y2="56.8"/>
		<line class="st30" x1="96.7" y1="56.8" x2="118" y2="56.8"/>
	</g>
	<g>
		<polygon class="st32" points="28.4,98 7.3,119 7.3,81.9 		"/>
		<polygon class="st32" points="63.3,119 7.3,119 28.4,98 35.3,103.3 42.2,98 		"/>
		<polygon class="st32" points="63.3,81.9 63.3,119 42.2,98 		"/>
		<polygon class="st32" points="63.3,81.9 42.2,98 35.3,103.3 28.4,98 7.3,81.9 		"/>
		<line class="st21" x1="42.2" y1="98" x2="42.1" y2="97.9"/>
		<line class="st21" x1="28.5" y1="97.9" x2="28.4" y2="98"/>
	</g>
</g>
</svg>
