<?xml version="1.0" encoding="utf-8"?>
<!-- Generator: Adobe Illustrator 22.0.1, SVG Export Plug-In . SVG Version: 6.00 Build 0)  -->
<svg version="1.1" id="Capa_1" xmlns="http://www.w3.org/2000/svg" xmlns:xlink="http://www.w3.org/1999/xlink" x="0px" y="0px"
	 viewBox="0 0 289.4 205.6" style="enable-background:new 0 0 289.4 205.6;" xml:space="preserve">
<style type="text/css">
	.st0{fill:#306EFD;}
	.st1{fill:#4DE5FF;}
	.st2{fill:#FFFFFF;}
	.st3{fill:#306EFE;}
	.st4{fill:#1F2534;}
	.st5{filter:url(#Adobe_OpacityMaskFilter);}
	.st6{mask:url(#b_1_);fill:#30C0E5;}
	.st7{filter:url(#Adobe_OpacityMaskFilter_1_);}
	.st8{mask:url(#d_2_);fill:#30C0E5;}
	.st9{filter:url(#Adobe_OpacityMaskFilter_2_);}
	.st10{mask:url(#f_2_);fill:#30C0E5;}
	.st11{fill:#30C0E5;}
	.st12{filter:url(#Adobe_OpacityMaskFilter_3_);}
	.st13{mask:url(#b_3_);fill:#306EFD;}
	.st14{filter:url(#Adobe_OpacityMaskFilter_4_);}
	.st15{mask:url(#b_2_);fill:#306EFD;}
	.st16{fill:none;stroke:#306EFD;stroke-width:2.5;stroke-linecap:round;stroke-miterlimit:10;}
	.st17{fill:#FAFAFA;}
	.st18{fill:none;stroke:#2C2E3E;stroke-width:2.5;stroke-miterlimit:10;}
	.st19{fill:#FAFAFA;stroke:#306EFD;stroke-width:2.5;stroke-miterlimit:10;}
	.st20{fill:none;stroke:#306EFD;stroke-width:2.5;stroke-miterlimit:10;}
	.st21{fill:none;stroke:#FC324B;stroke-width:2.5;stroke-miterlimit:10;}
	.st22{fill:none;stroke:#306EFD;stroke-width:2.5;stroke-linejoin:round;stroke-miterlimit:10;}
	.st23{fill:none;stroke:#306EFD;stroke-width:2.5;stroke-linecap:round;stroke-linejoin:round;stroke-miterlimit:10;}
	.st24{fill:none;stroke:#2C2E3E;stroke-width:2.5;stroke-linecap:round;stroke-linejoin:round;stroke-miterlimit:10;}
	.st25{fill:none;stroke:#2C2E3E;stroke-width:2;stroke-miterlimit:10;}
	.st26{fill:none;stroke:#306EFD;stroke-width:2;stroke-miterlimit:10;}
	.st27{fill:none;stroke:#2C2E3E;stroke-width:2.5;stroke-linecap:round;stroke-miterlimit:10;}
	.st28{fill-rule:evenodd;clip-rule:evenodd;fill:#FAFAFA;stroke:#306EFD;stroke-width:2.5;stroke-miterlimit:10;}
	.st29{fill:#FAFAFA;stroke:#306EFD;stroke-width:2.5;stroke-linecap:round;stroke-linejoin:round;stroke-miterlimit:10;}
	.st30{fill:none;stroke:#2C2E3E;stroke-linecap:round;stroke-miterlimit:10;}
	.st31{fill:none;stroke:#64656D;stroke-linecap:round;stroke-miterlimit:10;}
	.st32{fill:#FAFAFA;stroke:#306EFD;stroke-width:2.5;stroke-linejoin:round;stroke-miterlimit:10;}
</style>
<g>
	<g>
		<line class="st16" x1="174.7" y1="37.3" x2="86.2" y2="37.3"/>
		<line class="st16" x1="77.8" y1="118.7" x2="77.8" y2="46.8"/>
		<line class="st16" x1="183.1" y1="118.7" x2="183.1" y2="46.8"/>
		<rect x="69.3" y="28.8" class="st16" width="16.9" height="16.9"/>
		<rect x="174.7" y="28.8" class="st16" width="16.9" height="16.9"/>
		<line class="st16" x1="174.7" y1="127.1" x2="86.2" y2="127.1"/>
		<rect x="69.3" y="118.7" class="st16" width="16.9" height="16.9"/>
		<rect x="174.7" y="118.7" class="st16" width="16.9" height="16.9"/>
	</g>
	<line class="st16" x1="223.6" y1="63" x2="183.1" y2="63"/>
	<line class="st16" x1="126.7" y1="144.4" x2="126.7" y2="127.1"/>
	<line class="st16" x1="232" y1="144.4" x2="232" y2="72.5"/>
	<rect x="223.6" y="54.6" class="st16" width="16.9" height="16.9"/>
	<line class="st16" x1="223.6" y1="152.9" x2="135.1" y2="152.9"/>
	<rect x="118.3" y="144.4" class="st16" width="16.9" height="16.9"/>
	<rect x="223.6" y="144.4" class="st16" width="16.9" height="16.9"/>
	<g>
		<polygon class="st17" points="77,166.1 50.7,136 49,71.3 93.3,117.7 96.5,157.7 		"/>
		<line class="st18" x1="50.2" y1="74.2" x2="70.2" y2="122.7"/>
		
			<rect x="67.2" y="122.1" transform="matrix(0.9239 -0.3827 0.3827 0.9239 -43.0759 37.2308)" class="st18" width="9.6" height="9.6"/>
		
			<rect x="69" y="158" transform="matrix(0.9239 -0.3827 0.3827 0.9239 -56.1491 45.9261)" class="st19" width="36.7" height="12.1"/>
		<polyline class="st20" points="74.3,163 50.7,136 49,71.3 93.3,117.7 96.2,153.8 		"/>
	</g>
	<g>
		<line class="st18" x1="106.2" y1="92.1" x2="157.3" y2="70.9"/>
		<g>
			<g>
				<circle class="st18" cx="112.9" cy="61.8" r="5"/>
				<line class="st18" x1="134.3" y1="61.8" x2="118" y2="61.8"/>
			</g>
			<g>
				<circle class="st18" cx="149.6" cy="100.7" r="5"/>
				<line class="st18" x1="128.2" y1="100.7" x2="144.6" y2="100.7"/>
			</g>
		</g>
		<path class="st20" d="M157.1,58.6c0,0-22.5-2.9-26.5,24.5c-3.9,27.5-27,21.3-27,21.3"/>
		<line class="st20" x1="103.9" y1="102.1" x2="103.9" y2="108.6"/>
		<line class="st20" x1="156.7" y1="55.8" x2="156.7" y2="62.3"/>
	</g>
</g>
</svg>
