<?xml version="1.0" encoding="utf-8"?>
<!-- Generator: Adobe Illustrator 22.0.1, SVG Export Plug-In . SVG Version: 6.00 Build 0)  -->
<svg version="1.1" id="Capa_1" xmlns="http://www.w3.org/2000/svg" xmlns:xlink="http://www.w3.org/1999/xlink" x="0px" y="0px"
	 viewBox="0 0 289.4 205.6" style="enable-background:new 0 0 289.4 205.6;" xml:space="preserve">
<style type="text/css">
	.st0{fill:#306EFD;}
	.st1{fill:#4DE5FF;}
	.st2{fill:#FFFFFF;}
	.st3{fill:#306EFE;}
	.st4{fill:#1F2534;}
	.st5{filter:url(#Adobe_OpacityMaskFilter);}
	.st6{mask:url(#b_1_);fill:#30C0E5;}
	.st7{filter:url(#Adobe_OpacityMaskFilter_1_);}
	.st8{mask:url(#d_2_);fill:#30C0E5;}
	.st9{filter:url(#Adobe_OpacityMaskFilter_2_);}
	.st10{mask:url(#f_2_);fill:#30C0E5;}
	.st11{fill:#30C0E5;}
	.st12{filter:url(#Adobe_OpacityMaskFilter_3_);}
	.st13{mask:url(#b_3_);fill:#306EFD;}
	.st14{filter:url(#Adobe_OpacityMaskFilter_4_);}
	.st15{mask:url(#b_2_);fill:#306EFD;}
	.st16{fill:none;stroke:#306EFD;stroke-width:2.5;stroke-linecap:round;stroke-miterlimit:10;}
	.st17{fill:#FAFAFA;}
	.st18{fill:none;stroke:#2C2E3E;stroke-width:2.5;stroke-miterlimit:10;}
	.st19{fill:none;stroke:#306EFD;stroke-width:2.5;stroke-miterlimit:10;}
	.st20{fill:none;stroke:#FC324B;stroke-width:2.5;stroke-miterlimit:10;}
	.st21{fill:none;stroke:#306EFD;stroke-width:2.5;stroke-linejoin:round;stroke-miterlimit:10;}
	.st22{fill:none;stroke:#306EFD;stroke-width:2.5;stroke-linecap:round;stroke-linejoin:round;stroke-miterlimit:10;}
	.st23{fill:none;stroke:#2C2E3E;stroke-width:2.5;stroke-linecap:round;stroke-linejoin:round;stroke-miterlimit:10;}
	.st24{fill:#FAFAFA;stroke:#306EFD;stroke-width:2.5;stroke-miterlimit:10;}
	.st25{fill:none;stroke:#2C2E3E;stroke-width:2;stroke-miterlimit:10;}
	.st26{fill:none;stroke:#306EFD;stroke-width:2;stroke-miterlimit:10;}
	.st27{fill:none;stroke:#2C2E3E;stroke-width:2.5;stroke-linecap:round;stroke-miterlimit:10;}
	.st28{fill-rule:evenodd;clip-rule:evenodd;fill:#FAFAFA;stroke:#306EFD;stroke-width:2.5;stroke-miterlimit:10;}
	.st29{fill:#FAFAFA;stroke:#306EFD;stroke-width:2.5;stroke-linecap:round;stroke-linejoin:round;stroke-miterlimit:10;}
	.st30{fill:none;stroke:#2C2E3E;stroke-linecap:round;stroke-miterlimit:10;}
	.st31{fill:none;stroke:#64656D;stroke-linecap:round;stroke-miterlimit:10;}
	.st32{fill:#FAFAFA;stroke:#306EFD;stroke-width:2.5;stroke-linejoin:round;stroke-miterlimit:10;}
</style>
<g>
	<g>
		<path class="st19" d="M227.5,133.1H101.8c-4.6,0-8.3-3.7-8.3-8.3V28.8h142.3v95.9C235.8,129.4,232.1,133.1,227.5,133.1z"/>
		<line class="st19" x1="93.5" y1="51.7" x2="235.8" y2="51.7"/>
		<line class="st18" x1="110.4" y1="68.3" x2="157.4" y2="68.3"/>
		<line class="st18" x1="164.8" y1="68.3" x2="196.4" y2="68.3"/>
		<line class="st18" x1="145.3" y1="102.7" x2="196.4" y2="102.7"/>
		<line class="st18" x1="110.4" y1="84.8" x2="186.9" y2="84.8"/>
		<path class="st0" d="M108.1,40.3c0,2-1.6,3.6-3.5,3.6c-2,0-3.5-1.6-3.5-3.6s1.6-3.6,3.5-3.6C106.5,36.8,108.1,38.4,108.1,40.3
			 M119.9,40.3c0,2-1.6,3.6-3.5,3.6c-2,0-3.5-1.6-3.5-3.6s1.6-3.6,3.5-3.6C118.3,36.8,119.9,38.4,119.9,40.3 M131.7,40.3
			c0,2-1.6,3.6-3.5,3.6c-2,0-3.5-1.6-3.5-3.6s1.6-3.6,3.5-3.6C130.2,36.8,131.7,38.4,131.7,40.3"/>
	</g>
	<g>
		<path class="st17" d="M131.5,176.7h-106c-3.2,0-5.9-2.6-5.9-5.9v-67.4c0-3.2,2.6-5.9,5.9-5.9h106c3.2,0,5.9,2.6,5.9,5.9v67.4
			C137.4,174.1,134.8,176.7,131.5,176.7z"/>
		<path class="st19" d="M131.5,176.7h-106c-3.2,0-5.9-2.6-5.9-5.9v-67.4c0-3.2,2.6-5.9,5.9-5.9h106c3.2,0,5.9,2.6,5.9,5.9v67.4
			C137.4,174.1,134.8,176.7,131.5,176.7z"/>
		<line class="st18" x1="89.5" y1="138.9" x2="112.2" y2="138.9"/>
		<g>
			<line class="st18" x1="33.9" y1="151.4" x2="41.7" y2="159.3"/>
			<line class="st18" x1="41.7" y1="157.5" x2="33.9" y2="165.4"/>
		</g>
		<line class="st18" x1="58.2" y1="166" x2="44.9" y2="166"/>
		<line class="st18" x1="33.9" y1="129.3" x2="72.6" y2="129.3"/>
		<line class="st18" x1="78.8" y1="129.3" x2="124.3" y2="129.3"/>
		<line class="st18" x1="33.9" y1="138.9" x2="84.9" y2="138.9"/>
		<line class="st19" x1="19.4" y1="116.5" x2="137.4" y2="116.5"/>
		<path class="st0" d="M31.6,107c0,1.7-1.3,3-2.9,3c-1.7,0-2.9-1.3-2.9-3s1.3-3,2.9-3C30.3,104.1,31.6,105.4,31.6,107 M41.4,107
			c0,1.7-1.3,3-2.9,3c-1.7,0-2.9-1.3-2.9-3s1.3-3,2.9-3C40.1,104.1,41.4,105.4,41.4,107 M51.2,107c0,1.7-1.3,3-2.9,3
			c-1.7,0-2.9-1.3-2.9-3s1.3-3,2.9-3C50,104.1,51.2,105.4,51.2,107"/>
	</g>
	<g>
		<path class="st17" d="M264.2,142.2h-47.8c-3.2,0-5.9-2.6-5.9-5.9V50.4c0-3.2,2.6-5.9,5.9-5.9h47.8c3.2,0,5.9,2.6,5.9,5.9v85.9
			C270,139.5,267.4,142.2,264.2,142.2z"/>
		<path class="st19" d="M264.2,142.2h-47.8c-3.2,0-5.9-2.6-5.9-5.9V50.4c0-3.2,2.6-5.9,5.9-5.9h47.8c3.2,0,5.9,2.6,5.9,5.9v85.9
			C270,139.5,267.4,142.2,264.2,142.2z"/>
		<line class="st18" x1="220" y1="62.2" x2="239.5" y2="62.2"/>
		<line class="st18" x1="245" y1="62.2" x2="258.3" y2="62.2"/>
		<line class="st18" x1="220" y1="78.8" x2="251.6" y2="78.8"/>
		<line class="st18" x1="220" y1="96.6" x2="255.9" y2="96.6"/>
		<line class="st19" x1="210.5" y1="113.9" x2="270" y2="113.9"/>
		<circle class="st18" cx="240.3" cy="128.2" r="4.9"/>
	</g>
</g>
</svg>
